<svg width="164px" viewBox="0 0 164 131">
<rect width="164" height="131" fill="#fff"></rect><g fill="#EB1300">
	
<rect x="128" y="23" width="11" height="85"></rect>
	<path d="M0,0v131h164V0H0z M37,117.04c0,1.07-0.46,1.96-1.62,1.96H14.81c-1.07,0-0.81-0.89-0.81-1.96V14.96
		C14,13.8,13.74,13,14.83,13H22c1.08,0,2,0.8,2,1.96V108h11.4c1.15,0,1.6,0.8,1.6,1.96V117.04z M68,117.04
		c0,1.07,0.07,1.96-1.08,1.96H45.54c-1.16,0-1.54-0.89-1.54-1.96V14.96C44,13.8,44.38,13,45.54,13h20.98c1.16,0,1.48,0.8,1.48,1.96
		v7.08c0,1.07-0.33,0.96-1.48,0.96H54v37h11.71c1.16,0,2.29,0.16,2.29,1.3v6.99c0,1.14-1.13,1.71-2.29,1.71H54v38h12.92
		c1.16,0,1.08,0.8,1.08,1.96V117.04z M108,39.41c0,1.07-0.51,1.59-1.67,1.59h-6.95C98.23,41,98,40.48,98,39.41V23H88v85h10V70h-4.5
		c-1.07,0-1.5-0.57-1.5-1.73v-7.08c0-1.16,0.44-1.19,1.5-1.19h12.83c1.16,0,1.67,0.03,1.67,1.19v49.57c0,5.26-2.38,8.24-7.28,8.24
		H84.69c-4.9,0-6.69-2.98-6.69-8.24V21.24c0-2.58,0.31-4.67,1.61-6.06C80.9,13.8,82.37,13,84.69,13h16.03c2.32,0,4.08,0.8,5.38,2.18
		c1.29,1.38,1.9,3.47,1.9,6.06V39.41z M149,110.76c0,5.26-1.96,8.24-6.86,8.24H124.9c-4.9,0-7.9-2.98-7.9-8.24V21.24
		c0-2.58,0.92-4.67,2.22-6.06c1.29-1.38,3.37-2.18,5.69-2.18h17.24c2.32,0,3.87,0.8,5.17,2.18c1.29,1.38,1.69,3.47,1.69,6.06V110.76
		z"></path>
</g>
</svg>